<mxfile host="app.diagrams.net" modified="2020-11-18T10:50:42.297Z" agent="5.0 (Windows NT 10.0; Win64; x64) AppleWebKit/537.36 (KHTML, like Gecko) Chrome/86.0.4240.198 Safari/537.36" etag="Z7R6hYC6RwXq_bWBJLUZ" version="13.9.9" type="github">
  <diagram id="C5RBs43oDa-KdzZeNtuy" name="Page-1">
    <mxGraphModel dx="875" dy="462" grid="1" gridSize="10" guides="1" tooltips="1" connect="1" arrows="1" fold="1" page="1" pageScale="1" pageWidth="827" pageHeight="1169" math="0" shadow="0">
      <root>
        <mxCell id="WIyWlLk6GJQsqaUBKTNV-0" />
        <mxCell id="WIyWlLk6GJQsqaUBKTNV-1" parent="WIyWlLk6GJQsqaUBKTNV-0" />
        <mxCell id="b9G5wnI9PVpMq5Pq6NE6-0" value="Building" style="swimlane;fontStyle=1;align=center;verticalAlign=top;childLayout=stackLayout;horizontal=1;startSize=26;horizontalStack=0;resizeParent=1;resizeParentMax=0;resizeLast=0;collapsible=1;marginBottom=0;" parent="WIyWlLk6GJQsqaUBKTNV-1" vertex="1">
          <mxGeometry x="320" y="261" width="290" height="238" as="geometry" />
        </mxCell>
        <mxCell id="b9G5wnI9PVpMq5Pq6NE6-1" value="- sensors : ArrayList&#xa;- actuators : ArrayList&#xa;-Name: String&#xa;-Id: int" style="text;strokeColor=none;fillColor=none;align=left;verticalAlign=top;spacingLeft=4;spacingRight=4;overflow=hidden;rotatable=0;points=[[0,0.5],[1,0.5]];portConstraint=eastwest;" parent="b9G5wnI9PVpMq5Pq6NE6-0" vertex="1">
          <mxGeometry y="26" width="290" height="64" as="geometry" />
        </mxCell>
        <mxCell id="b9G5wnI9PVpMq5Pq6NE6-2" value="" style="line;strokeWidth=1;fillColor=none;align=left;verticalAlign=middle;spacingTop=-1;spacingLeft=3;spacingRight=3;rotatable=0;labelPosition=right;points=[];portConstraint=eastwest;" parent="b9G5wnI9PVpMq5Pq6NE6-0" vertex="1">
          <mxGeometry y="90" width="290" height="8" as="geometry" />
        </mxCell>
        <mxCell id="b9G5wnI9PVpMq5Pq6NE6-3" value="+ getSensor ( ) : Sensor&#xa;+ getAct ( ) : Actuators&#xa;+ addCo2Sens ( String name ) :&#xa;+ addTempSens ( ) : id&#xa;+ removeTempSens ( ) : void&#xa;+ removeCo2Sens ( ) : void &#xa;+ addAct ( ) : int&#xa;+ removeAct ( ) : int&#xa;" style="text;strokeColor=none;fillColor=none;align=left;verticalAlign=top;spacingLeft=4;spacingRight=4;overflow=hidden;rotatable=0;points=[[0,0.5],[1,0.5]];portConstraint=eastwest;" parent="b9G5wnI9PVpMq5Pq6NE6-0" vertex="1">
          <mxGeometry y="98" width="290" height="140" as="geometry" />
        </mxCell>
        <mxCell id="b9G5wnI9PVpMq5Pq6NE6-4" value="Sensor" style="swimlane;fontStyle=1;align=center;verticalAlign=top;childLayout=stackLayout;horizontal=1;startSize=26;horizontalStack=0;resizeParent=1;resizeParentMax=0;resizeLast=0;collapsible=1;marginBottom=0;" parent="WIyWlLk6GJQsqaUBKTNV-1" vertex="1">
          <mxGeometry x="800" y="239" width="160" height="130" as="geometry" />
        </mxCell>
        <mxCell id="Yl5CTmaywLshwxe99Z_q-0" value="-Name: String&lt;br&gt;-Id: Int" style="text;html=1;align=left;verticalAlign=middle;resizable=0;points=[];autosize=1;" vertex="1" parent="b9G5wnI9PVpMq5Pq6NE6-4">
          <mxGeometry y="26" width="160" height="30" as="geometry" />
        </mxCell>
        <mxCell id="b9G5wnI9PVpMq5Pq6NE6-6" value="" style="line;strokeWidth=1;fillColor=none;align=left;verticalAlign=middle;spacingTop=-1;spacingLeft=3;spacingRight=3;rotatable=0;labelPosition=right;points=[];portConstraint=eastwest;" parent="b9G5wnI9PVpMq5Pq6NE6-4" vertex="1">
          <mxGeometry y="56" width="160" height="50" as="geometry" />
        </mxCell>
        <mxCell id="Yl5CTmaywLshwxe99Z_q-6" value="&lt;span style=&quot;text-align: left&quot;&gt;+ getValue ( ) : double&amp;nbsp;&lt;/span&gt;" style="text;html=1;strokeColor=none;fillColor=none;align=center;verticalAlign=top;whiteSpace=wrap;rounded=0;" vertex="1" parent="b9G5wnI9PVpMq5Pq6NE6-4">
          <mxGeometry y="106" width="160" height="24" as="geometry" />
        </mxCell>
        <mxCell id="b9G5wnI9PVpMq5Pq6NE6-8" value="Actuators" style="swimlane;fontStyle=1;align=center;verticalAlign=top;childLayout=stackLayout;horizontal=1;startSize=26;horizontalStack=0;resizeParent=1;resizeParentMax=0;resizeLast=0;collapsible=1;marginBottom=0;" parent="WIyWlLk6GJQsqaUBKTNV-1" vertex="1">
          <mxGeometry x="1000" y="239" width="160" height="120" as="geometry" />
        </mxCell>
        <mxCell id="b9G5wnI9PVpMq5Pq6NE6-9" value="-Name: String&#xa;-Id: Int" style="text;strokeColor=none;fillColor=none;align=left;verticalAlign=top;spacingLeft=4;spacingRight=4;overflow=hidden;rotatable=0;points=[[0,0.5],[1,0.5]];portConstraint=eastwest;" parent="b9G5wnI9PVpMq5Pq6NE6-8" vertex="1">
          <mxGeometry y="26" width="160" height="44" as="geometry" />
        </mxCell>
        <mxCell id="b9G5wnI9PVpMq5Pq6NE6-10" value="" style="line;strokeWidth=1;fillColor=none;align=left;verticalAlign=middle;spacingTop=-1;spacingLeft=3;spacingRight=3;rotatable=0;labelPosition=right;points=[];portConstraint=eastwest;" parent="b9G5wnI9PVpMq5Pq6NE6-8" vertex="1">
          <mxGeometry y="70" width="160" height="8" as="geometry" />
        </mxCell>
        <mxCell id="b9G5wnI9PVpMq5Pq6NE6-11" value="+ getValue ( ) : double" style="text;strokeColor=none;fillColor=none;align=left;verticalAlign=top;spacingLeft=4;spacingRight=4;overflow=hidden;rotatable=0;points=[[0,0.5],[1,0.5]];portConstraint=eastwest;" parent="b9G5wnI9PVpMq5Pq6NE6-8" vertex="1">
          <mxGeometry y="78" width="160" height="42" as="geometry" />
        </mxCell>
        <mxCell id="b9G5wnI9PVpMq5Pq6NE6-12" value="BuildingAdmin" style="swimlane;fontStyle=1;align=center;verticalAlign=top;childLayout=stackLayout;horizontal=1;startSize=26;horizontalStack=0;resizeParent=1;resizeParentMax=0;resizeLast=0;collapsible=1;marginBottom=0;" parent="WIyWlLk6GJQsqaUBKTNV-1" vertex="1">
          <mxGeometry x="70" y="270" width="160" height="130" as="geometry" />
        </mxCell>
        <mxCell id="b9G5wnI9PVpMq5Pq6NE6-13" value="- building : ArrayList" style="text;strokeColor=none;fillColor=none;align=left;verticalAlign=top;spacingLeft=4;spacingRight=4;overflow=hidden;rotatable=0;points=[[0,0.5],[1,0.5]];portConstraint=eastwest;" parent="b9G5wnI9PVpMq5Pq6NE6-12" vertex="1">
          <mxGeometry y="26" width="160" height="26" as="geometry" />
        </mxCell>
        <mxCell id="b9G5wnI9PVpMq5Pq6NE6-14" value="" style="line;strokeWidth=1;fillColor=none;align=left;verticalAlign=middle;spacingTop=-1;spacingLeft=3;spacingRight=3;rotatable=0;labelPosition=right;points=[];portConstraint=eastwest;" parent="b9G5wnI9PVpMq5Pq6NE6-12" vertex="1">
          <mxGeometry y="52" width="160" height="8" as="geometry" />
        </mxCell>
        <mxCell id="b9G5wnI9PVpMq5Pq6NE6-15" value="+ getBuildings ( ) : Building&#xa;+ addBuilding ( ) :&#xa;+ removeBuilding ( ) :" style="text;strokeColor=none;fillColor=none;align=left;verticalAlign=top;spacingLeft=4;spacingRight=4;overflow=hidden;rotatable=0;points=[[0,0.5],[1,0.5]];portConstraint=eastwest;" parent="b9G5wnI9PVpMq5Pq6NE6-12" vertex="1">
          <mxGeometry y="60" width="160" height="70" as="geometry" />
        </mxCell>
        <mxCell id="b9G5wnI9PVpMq5Pq6NE6-16" value="Co2Sens" style="swimlane;fontStyle=1;align=center;verticalAlign=top;childLayout=stackLayout;horizontal=1;startSize=26;horizontalStack=0;resizeParent=1;resizeParentMax=0;resizeLast=0;collapsible=1;marginBottom=0;" parent="WIyWlLk6GJQsqaUBKTNV-1" vertex="1">
          <mxGeometry x="880" y="480" width="160" height="60" as="geometry" />
        </mxCell>
        <mxCell id="b9G5wnI9PVpMq5Pq6NE6-18" value="" style="line;strokeWidth=1;fillColor=none;align=left;verticalAlign=middle;spacingTop=-1;spacingLeft=3;spacingRight=3;rotatable=0;labelPosition=right;points=[];portConstraint=eastwest;" parent="b9G5wnI9PVpMq5Pq6NE6-16" vertex="1">
          <mxGeometry y="26" width="160" height="8" as="geometry" />
        </mxCell>
        <mxCell id="b9G5wnI9PVpMq5Pq6NE6-19" value="+ getValue ( ) : double " style="text;strokeColor=none;fillColor=none;align=left;verticalAlign=top;spacingLeft=4;spacingRight=4;overflow=hidden;rotatable=0;points=[[0,0.5],[1,0.5]];portConstraint=eastwest;" parent="b9G5wnI9PVpMq5Pq6NE6-16" vertex="1">
          <mxGeometry y="34" width="160" height="26" as="geometry" />
        </mxCell>
        <mxCell id="b9G5wnI9PVpMq5Pq6NE6-20" value="TempSens" style="swimlane;fontStyle=1;align=center;verticalAlign=top;childLayout=stackLayout;horizontal=1;startSize=26;horizontalStack=0;resizeParent=1;resizeParentMax=0;resizeLast=0;collapsible=1;marginBottom=0;" parent="WIyWlLk6GJQsqaUBKTNV-1" vertex="1">
          <mxGeometry x="700" y="480" width="160" height="60" as="geometry" />
        </mxCell>
        <mxCell id="b9G5wnI9PVpMq5Pq6NE6-22" value="" style="line;strokeWidth=1;fillColor=none;align=left;verticalAlign=middle;spacingTop=-1;spacingLeft=3;spacingRight=3;rotatable=0;labelPosition=right;points=[];portConstraint=eastwest;" parent="b9G5wnI9PVpMq5Pq6NE6-20" vertex="1">
          <mxGeometry y="26" width="160" height="8" as="geometry" />
        </mxCell>
        <mxCell id="b9G5wnI9PVpMq5Pq6NE6-23" value="+ getTemp ( ) : double " style="text;strokeColor=none;fillColor=none;align=left;verticalAlign=top;spacingLeft=4;spacingRight=4;overflow=hidden;rotatable=0;points=[[0,0.5],[1,0.5]];portConstraint=eastwest;" parent="b9G5wnI9PVpMq5Pq6NE6-20" vertex="1">
          <mxGeometry y="34" width="160" height="26" as="geometry" />
        </mxCell>
        <mxCell id="b9G5wnI9PVpMq5Pq6NE6-26" style="edgeStyle=orthogonalEdgeStyle;rounded=0;orthogonalLoop=1;jettySize=auto;html=1;exitX=1;exitY=0.5;exitDx=0;exitDy=0;entryX=0;entryY=0.5;entryDx=0;entryDy=0;" parent="WIyWlLk6GJQsqaUBKTNV-1" source="b9G5wnI9PVpMq5Pq6NE6-13" target="b9G5wnI9PVpMq5Pq6NE6-1" edge="1">
          <mxGeometry relative="1" as="geometry" />
        </mxCell>
        <mxCell id="b9G5wnI9PVpMq5Pq6NE6-27" style="edgeStyle=orthogonalEdgeStyle;rounded=0;orthogonalLoop=1;jettySize=auto;html=1;exitX=1;exitY=0.5;exitDx=0;exitDy=0;" parent="WIyWlLk6GJQsqaUBKTNV-1" source="b9G5wnI9PVpMq5Pq6NE6-1" edge="1">
          <mxGeometry relative="1" as="geometry">
            <Array as="points">
              <mxPoint x="790" y="319" />
            </Array>
            <mxPoint x="790" y="319" as="targetPoint" />
          </mxGeometry>
        </mxCell>
        <mxCell id="b9G5wnI9PVpMq5Pq6NE6-29" style="edgeStyle=orthogonalEdgeStyle;rounded=0;orthogonalLoop=1;jettySize=auto;html=1;exitX=0.541;exitY=0.996;exitDx=0;exitDy=0;exitPerimeter=0;entryX=0.5;entryY=1;entryDx=0;entryDy=0;" parent="WIyWlLk6GJQsqaUBKTNV-1" source="b9G5wnI9PVpMq5Pq6NE6-3" target="b9G5wnI9PVpMq5Pq6NE6-8" edge="1">
          <mxGeometry relative="1" as="geometry">
            <Array as="points">
              <mxPoint x="477" y="600" />
              <mxPoint x="1290" y="600" />
              <mxPoint x="1290" y="377" />
              <mxPoint x="1080" y="377" />
            </Array>
            <mxPoint x="1000" y="240" as="targetPoint" />
          </mxGeometry>
        </mxCell>
        <mxCell id="Yl5CTmaywLshwxe99Z_q-11" style="edgeStyle=orthogonalEdgeStyle;rounded=0;orthogonalLoop=1;jettySize=auto;html=1;exitX=0;exitY=0.5;exitDx=0;exitDy=0;entryX=1;entryY=0.5;entryDx=0;entryDy=0;" edge="1" parent="WIyWlLk6GJQsqaUBKTNV-1" source="b9G5wnI9PVpMq5Pq6NE6-31" target="b9G5wnI9PVpMq5Pq6NE6-9">
          <mxGeometry relative="1" as="geometry" />
        </mxCell>
        <mxCell id="b9G5wnI9PVpMq5Pq6NE6-31" value="ActVentil" style="swimlane;fontStyle=1;align=center;verticalAlign=top;childLayout=stackLayout;horizontal=1;startSize=26;horizontalStack=0;resizeParent=1;resizeParentMax=0;resizeLast=0;collapsible=1;marginBottom=0;" parent="WIyWlLk6GJQsqaUBKTNV-1" vertex="1">
          <mxGeometry x="1241" y="239" width="160" height="60" as="geometry" />
        </mxCell>
        <mxCell id="b9G5wnI9PVpMq5Pq6NE6-33" value="" style="line;strokeWidth=1;fillColor=none;align=left;verticalAlign=middle;spacingTop=-1;spacingLeft=3;spacingRight=3;rotatable=0;labelPosition=right;points=[];portConstraint=eastwest;" parent="b9G5wnI9PVpMq5Pq6NE6-31" vertex="1">
          <mxGeometry y="26" width="160" height="8" as="geometry" />
        </mxCell>
        <mxCell id="b9G5wnI9PVpMq5Pq6NE6-34" value="+ setValue ( ) : double " style="text;strokeColor=none;fillColor=none;align=left;verticalAlign=top;spacingLeft=4;spacingRight=4;overflow=hidden;rotatable=0;points=[[0,0.5],[1,0.5]];portConstraint=eastwest;" parent="b9G5wnI9PVpMq5Pq6NE6-31" vertex="1">
          <mxGeometry y="34" width="160" height="26" as="geometry" />
        </mxCell>
        <mxCell id="Yl5CTmaywLshwxe99Z_q-5" value="Extends" style="endArrow=block;endSize=16;endFill=0;html=1;exitX=0.5;exitY=0;exitDx=0;exitDy=0;" edge="1" parent="WIyWlLk6GJQsqaUBKTNV-1" source="b9G5wnI9PVpMq5Pq6NE6-20">
          <mxGeometry width="160" relative="1" as="geometry">
            <mxPoint x="720" y="440" as="sourcePoint" />
            <mxPoint x="880" y="370" as="targetPoint" />
            <Array as="points">
              <mxPoint x="780" y="440" />
              <mxPoint x="880" y="440" />
            </Array>
          </mxGeometry>
        </mxCell>
        <mxCell id="Yl5CTmaywLshwxe99Z_q-7" value="Extends" style="endArrow=block;endSize=16;endFill=0;html=1;exitX=0.563;exitY=-0.017;exitDx=0;exitDy=0;entryX=0.5;entryY=1;entryDx=0;entryDy=0;exitPerimeter=0;" edge="1" parent="WIyWlLk6GJQsqaUBKTNV-1" source="b9G5wnI9PVpMq5Pq6NE6-16" target="b9G5wnI9PVpMq5Pq6NE6-4">
          <mxGeometry width="160" relative="1" as="geometry">
            <mxPoint x="790" y="500" as="sourcePoint" />
            <mxPoint x="880" y="420" as="targetPoint" />
            <Array as="points">
              <mxPoint x="970" y="440" />
              <mxPoint x="880" y="440" />
            </Array>
          </mxGeometry>
        </mxCell>
      </root>
    </mxGraphModel>
  </diagram>
</mxfile>
